<svg width="32" height="32" viewBox="0 0 32 32" xmlns="http://www.w3.org/2000/svg">
  <path id="folder-add" d="m26,23l0,-3l1,0l0,3l3,0l0,1l-3,0l0,3l-1,0l0,-3l-3,0l0,-1l3,0l0,0zm-4.40029,3l-19.60674,0c-0.54686,0 -0.99297,-0.44405 -0.99297,-0.9918l0,-11.0082l27,0l0,4.20703c-0.47683,-0.13486 -0.97999,-0.20703 -1.5,-0.20703c-3.03757,0 -5.5,2.46243 -5.5,5.5c0,0.90022 0.21628,1.74993 0.59971,2.5l0,0l0,0zm0.65745,1l-20.26387,0c-1.09358,0 -1.99329,-0.89147 -1.99329,-1.99115l0,-18.0177c0,-1.10148 0.89667,-1.99115 2.00276,-1.99115l10.99724,0l2,4l11.99414,0c1.1088,0 2.00586,0.89323 2.00586,1.99509l0,7.60462c1.78084,0.91036 3,2.76295 3,4.90029c0,3.03757 -2.46243,5.5 -5.5,5.5c-1.70794,0 -3.23405,-0.7785 -4.24284,-2l0,0l0,0zm-21.25716,-14l0,-6.0082c0,-0.53649 0.44401,-0.9918 0.99173,-0.9918l10.40829,0l1.95997,4l12.63703,0c0.54915,0 1.00298,0.44811 1.00298,1.00087l0,1.99913l-27,0l0,0l0,0zm25.5,15c2.48528,0 4.5,-2.01472 4.5,-4.5c0,-2.48528 -2.01472,-4.5 -4.5,-4.5c-2.48528,0 -4.5,2.01472 -4.5,4.5c0,2.48528 2.01472,4.5 4.5,4.5l0,0z"/>
</svg>
