<svg width="24.000000000000004" height="24.000000000000004" xmlns="http://www.w3.org/2000/svg">

 <g>
  <title>background</title>
  <rect fill="none" id="canvas_background" height="402" width="582" y="-1" x="-1"/>
 </g>
 <g>
  <title>Layer 1</title>
  <path id="svg_1" fill="none" d="m0,0l24,0l0,24l-24,0l0,-24z"/>
  <path fill="#344955" id="svg_2" d="m18,8l-1,0l0,-2c0,-2.76 -2.24,-5 -5,-5s-5,2.24 -5,5l0,2l-1,0c-1.1,0 -2,0.9 -2,2l0,10c0,1.1 0.9,2 2,2l12,0c1.1,0 2,-0.9 2,-2l0,-10c0,-1.1 -0.9,-2 -2,-2zm-6,9c-1.1,0 -2,-0.9 -2,-2s0.9,-2 2,-2s2,0.9 2,2s-0.9,2 -2,2zm3.1,-9l-6.2,0l0,-2c0,-1.71 1.39,-3.1 3.1,-3.1c1.71,0 3.1,1.39 3.1,3.1l0,2z"/>
 </g>
</svg>