<?xml version="1.0" ?><!DOCTYPE svg  PUBLIC '-//W3C//DTD SVG 1.1//EN'  'http://www.w3.org/Graphics/SVG/1.1/DTD/svg11.dtd'><svg height="512px" style="enable-background:new 0 0 512 512;" version="1.1" viewBox="0 0 512 512" width="512px" xml:space="preserve" xmlns="http://www.w3.org/2000/svg" xmlns:xlink="http://www.w3.org/1999/xlink"><g id="_x34_5-bitcoin"><g><path d="M362.199,243.996c24.913-12.74,40.767-35.39,37.088-73.044    c-4.814-51.526-47.131-68.796-103.188-73.607V26.001H252.5v69.362c-11.325,0-22.932,0.283-34.539,0.564V26.001h-43.6v71.344    c-16.029,0.484-34.698,0.248-87.479,0v46.43c34.423-0.609,52.483-2.821,56.623,19.251V358.37    c-2.629,17.515-16.643,14.991-47.846,14.438l-8.775,51.809c79.495,0,87.479,0.284,87.479,0.284v61.099h43.601v-60.25    c11.888,0.285,23.498,0.285,34.539,0.285v59.965h43.599V424.9c73.043-3.964,121.871-22.366,128.384-91.16    C429.579,278.535,403.531,253.903,362.199,243.996z M218.811,146.889c24.631,0,101.639-7.643,101.639,43.599    c0,48.979-77.007,43.315-101.639,43.315V146.889z M218.811,373.093v-95.691c29.445,0,119.608-8.209,119.608,47.847    C338.418,379.321,248.255,373.093,218.811,373.093L218.811,373.093z" style="fill:#F7931B;"/></g></g><g id="Layer_1"/></svg>