<svg width="1024" height="1024" xmlns="http://www.w3.org/2000/svg">

 <g>
  <title>background</title>
  <rect fill="none" id="canvas_background" height="402" width="582" y="-1" x="-1"/>
 </g>
 <g>
  <title>Layer 1</title>
  <path stroke="null" id="Dailymotion_1_" fill="#0064DC" d="m689.780916,56.99564l0,312.106851c0,0 -80.332907,-111.81602 -239.914219,-87.390309c-68.834911,10.535623 -137.935247,39.398672 -191.041628,84.91517c-41.342959,35.433565 -77.7047,78.103654 -99.811597,128.254524c-13.176857,29.8873 -23.53173,64.417114 -27.526148,96.914708c-16.063976,130.705237 32.590412,280.105912 143.194917,357.769903c31.518938,22.132951 71.627583,45.267356 108.826313,55.982101c71.585246,20.623442 149.688899,19.553596 219.204473,-8.132133c18.910385,-7.531261 36.669506,-17.74935 53.207341,-29.577908c6.977611,-4.990987 42.276021,-27.164647 42.276021,-35.589889l-0.27194,82.233227l207.483388,-0.407095l0,-1003.082534l-215.62692,46.003384zm-169.866165,771.925747c-99.827881,0 -180.750262,-80.924009 -180.750262,-180.750262s80.922381,-180.750262 180.750262,-180.750262c99.824624,0 180.750262,80.924009 180.750262,180.750262s-80.925637,180.750262 -180.750262,180.750262z"/>
 </g>
</svg>