<svg width="24" height="24" xmlns="http://www.w3.org/2000/svg">

 <g>
  <title>background</title>
  <rect fill="none" id="canvas_background" height="402" width="582" y="-1" x="-1"/>
 </g>
 <g>
  <title>Layer 1</title>
  <circle id="svg_1" r="11" fill="none" cy="11.9975" cx="12"/>
  <path stroke="null" id="svg_2" fill="#8c9eff" d="m20.546449,5.528242c0,0 -2.457634,-1.92321 -5.360133,-2.144012l-0.261611,0.523042c2.624269,0.642208 3.828171,1.562465 5.085509,2.692886c-2.168202,-1.10677 -4.308967,-2.144012 -8.040006,-2.144012s-5.871984,1.037242 -8.040006,2.144012c1.257518,-1.130421 2.689627,-2.152135 5.085509,-2.692886l-0.261611,-0.523042c-3.044776,0.28779 -5.359773,2.144012 -5.359773,2.144012s-2.744872,3.97983 -3.216108,11.792168c2.766906,3.190647 6.96809,3.215928 6.96809,3.215928l0.878551,-1.171217c-1.491153,-0.518358 -3.175312,-1.444031 -4.630533,-3.116807c1.735619,1.313123 4.355011,2.680053 8.576061,2.680053s6.840442,-1.366751 8.576061,-2.680053c-1.455221,1.672776 -3.13938,2.598629 -4.630533,3.116807l0.878551,1.171217c0,0 4.201184,-0.025281 6.96809,-3.216108c-0.471236,-7.812159 -3.216108,-11.791989 -3.216108,-11.791989zm-12.060106,9.648156c-1.036164,0 -1.876075,-0.959988 -1.876075,-2.144025s0.839911,-2.144012 1.876075,-2.144012c1.036164,0 1.876075,0.959975 1.876075,2.144012s-0.839911,2.144025 -1.876075,2.144025zm6.96809,0c-1.036164,0 -1.876075,-0.959988 -1.876075,-2.144025s0.839911,-2.144012 1.876075,-2.144012c1.036164,0 1.876087,0.959975 1.876087,2.144012s-0.840103,2.144025 -1.876087,2.144025z"/>
 </g>
</svg>