<?xml version="1.0" ?><!DOCTYPE svg  PUBLIC '-//W3C//DTD SVG 1.1//EN'  'http://www.w3.org/Graphics/SVG/1.1/DTD/svg11.dtd'><svg height="512px" style="enable-background:new 0 0 512 512;" version="1.1" viewBox="0 0 512 512" width="512px" xml:space="preserve" xmlns="http://www.w3.org/2000/svg" xmlns:xlink="http://www.w3.org/1999/xlink"><g id="_x31_01-drupal"><g><g><path d="M354.255,110.161c-22.841-14.404-44.755-20.063-66.566-34.468     c-13.375-9.053-32.204-30.865-47.843-49.692c-2.777,30.145-11.831,42.388-22.635,50.928     c-21.913,17.491-35.803,22.841-55.042,33.232c-16.256,8.538-103.709,68.727-103.709,180.87     c0,112.352,94.449,194.968,199.392,194.968c104.634,0,195.688-76.136,195.688-191.366     C453.54,179.093,368.145,118.699,354.255,110.161z M356.826,445.152c-20.679,20.682-92.7,29.528-120.066,4.32     c-4.938-4.937,0.309-12.344,6.688-12.344c0,0,17.49,13.683,52.987,13.683c27.777,0,47.326-7.924,56.071-14.404     C358.782,431.675,361.149,440.831,356.826,445.152z M300.754,391.035c8.952-3.705,29.837-3.909,37.863,1.338     c4.217,2.882,16.563,19.342,6.379,24.384c-8.644,4.321-1.235-16.153-27.266-16.153c-15.124,0-20.062,5.351-27.471,11.316     c-7.202,6.175-10.082,8.231-12.551,4.837C271.534,408.32,294.067,393.813,300.754,391.035z M395.924,408.834     c-15.639-1.028-46.813-50.206-66.875-50.929c-31.792-0.926-107.105,83.029-165.954,43.212     c-39.921-27.367-15.021-107.822,53.294-108.232c50.929-0.518,86.218,50.411,111.631,49.897     c21.914-0.307,63.583-43.006,84.16-43.006C462.286,299.776,436.151,412.229,395.924,408.834z" style="fill:#009DE0;"/></g></g></g><g id="Layer_1"/></svg>