<?xml version="1.0" ?><!DOCTYPE svg  PUBLIC '-//W3C//DTD SVG 1.1//EN'  'http://www.w3.org/Graphics/SVG/1.1/DTD/svg11.dtd'><svg height="512px" style="enable-background:new 0 0 512 512;" version="1.1" viewBox="0 0 512 512" width="512px" xml:space="preserve" xmlns="http://www.w3.org/2000/svg" xmlns:xlink="http://www.w3.org/1999/xlink"><g id="形状_2_7_" style="enable-background:new    ;"><g id="形状_2"><g><path d="M84.474,205.044c-34.305,0.935-58.475,18.711-58.475,55.198     c0,16.841,5.458,30.874,15.594,40.232c10.915,9.354,25.729,13.098,43.661,13.098c14.814,0,27.288-2.807,36.645-8.422     c9.355-6.549,14.813-14.034,16.373-24.325h-22.61c-5.458,13.101-17.932,17.776-29.627,17.776     c-21.831,0-35.084-12.161-36.644-33.68h92.78C143.729,226.563,123.457,205.044,84.474,205.044z M50.169,249.951     c1.559-19.647,17.932-29.938,34.305-29.938c19.492,0.935,31.187,9.356,33.526,29.938H50.169z" style="fill-rule:evenodd;clip-rule:evenodd;fill:#ED4E2E;"/></g></g></g><g id="形状_2_6_" style="enable-background:new    ;"><g id="形状_2_1_"><g><path d="M245.865,220.013     c-11.695-12.163-25.729-14.969-42.102-14.969c-15.593,0-30.407,7.484-38.204,17.776v-58.009h-23.39v124.436l-0.78,20.582H164     l0.78-14.034c9.355,10.292,21.051,16.841,36.644,17.777c16.374,0.936,30.407-2.807,42.103-12.164     c10.915-10.292,17.931-23.389,17.931-42.102C261.457,244.338,256,230.304,245.865,220.013z M226.373,288.311     c-7.796,6.549-16.373,10.291-26.508,10.291c-24.169-0.937-34.305-18.71-35.084-40.229c-0.78-20.584,15.593-38.36,35.865-38.36     c10.135,0,18.711,3.742,25.728,10.291c7.017,6.55,10.916,14.969,10.916,28.069C237.288,272.406,233.39,281.762,226.373,288.311z" style="fill-rule:evenodd;clip-rule:evenodd;fill:#004991;"/></g></g></g><g id="形状_2_5_" style="enable-background:new    ;"><g id="形状_2_2_"><g><path d="M369.051,267.728v-23.39     c0-29.939-21.83-38.359-49.898-39.294c-10.135,0-19.491,0.935-27.288,3.742c-15.593,4.676-22.61,12.161-24.948,27.131h24.169     c1.56-11.228,11.695-15.904,26.508-15.904c14.813,0,28.069,6.55,28.069,20.584v5.612c-7.797,0-20.272,0-36.645,0.936     c-15.594,0.936-35.864,3.743-45.221,17.777c-3.119,3.742-5.457,12.161-4.678,17.776c2.338,23.389,24.949,30.874,43.661,30.874     c17.152,0,32.745-2.807,44.44-17.777c0.779,4.68,0,8.422,0.779,14.034h21.831C368.271,302.344,369.051,272.406,369.051,267.728z      M341.763,282.698c-8.576,16.84-37.424,22.452-52.237,10.291c-10.135-7.485-8.576-23.392,4.679-27.132     c14.813-4.679,35.864-4.679,51.458-3.742C345.662,269.598,345.662,275.213,341.763,282.698z" style="fill-rule:evenodd;clip-rule:evenodd;fill:#FCB900;"/></g></g></g><g id="形状_2_4_" style="enable-background:new    ;"><g id="形状_2_3_"><g><polygon points="461.831,208.786 422.849,288.311 383.085,208.786      355.797,208.786 409.594,309.829 389.321,348.188 415.052,348.188 486.001,208.786    " style="fill-rule:evenodd;clip-rule:evenodd;fill:#1FB33E;"/></g></g></g></svg>