<?xml version="1.0" ?><!DOCTYPE svg  PUBLIC '-//W3C//DTD SVG 1.1//EN'  'http://www.w3.org/Graphics/SVG/1.1/DTD/svg11.dtd'><svg enable-background="new 0 0 512 512" id="Layer_1" version="1.1" viewBox="0 0 512 512" xml:space="preserve" xmlns="http://www.w3.org/2000/svg" xmlns:xlink="http://www.w3.org/1999/xlink"><g><path d="M465.9,244c2.3,27.3,2.3,54.6-0.9,81.9c-4.5,38.4-9.6,76.7-21.1,113.7c-5,16.2-11.1,32-20.7,46.3   c-10,14.7-24,22.3-41.3,23.9c-28.3,2.6-56.6,2.7-84.7-1.9c-13.9-2.3-26.8-7.3-34.7-20.2c-3.4-5.4-5.5-11.4-6.6-17.6   c-3.1-16.5-3.3-33.2-0.3-49.7c4.5-24.8,17.5-36.2,42.8-38.2c11.1-0.9,22.3-1.1,33.5-0.5c4,0.2,5.2,1.7,3.7,5.3   c-3.4,8.5-3.5,17.2-1.5,26c0.9,3.9-1,5.1-4.6,5c-6.5-0.1-13-0.5-19.4,0.9c-8.5,1.9-12.8,7.1-13,15.8c0,0.5,0,1,0,1.5   c0,15.5,4.6,21.2,19.9,22.3c14.8,1.1,29.7,1.3,44.4-0.6c13.9-1.8,20-6.7,21.9-20.5c2.8-20.7,2.2-41.6-4.4-61.8   c-4.9-15.1-16.1-22-31.3-23.7c-17.1-1.8-34-4.6-50.8-7.8c-22.8-4.4-32.8-17.9-36.4-39.9c-1.1-6.8-1.2-13.6-1.2-20.4   c0-1.3,0.9-3.6-1.2-3.6c-1.9,0.1-1.2,2.4-1.2,3.8c0.1,15.6-1.8,30.9-5.5,46c-2,8.4-4.8,16.7-8.3,24.6c-3.5,8-9.7,12.5-18.8,12.4   c-14.1-0.2-27.8-3.1-41.6-5.3c-25.5-4.1-50.4-10.5-75.4-17.1c-21.4-5.6-32.3-19.3-38-39.2c-9.3-32.1-15.3-64.8-20.8-97.6   c-2.4-14.3-4.3-28.7-5.6-43.1c-0.7-7.9-0.1-15.7,2-23.3c4.4-15.5,15.7-22.9,30.8-25.4c4.2-0.7,8.6-0.9,12.9-0.9   c14.8-0.1,29.7,0,44.5-0.1c13.9,0,21.1-7.5,20.9-21.6c-0.2-15,0.1-30-0.7-45c-1.5-28.1,16-41,39.5-44.3c21.9-3,43.9-1.9,65.6,2.9   c18.4,4,31.2,13.8,35.5,32.7c0.8,3.4,2.9,2.9,5.2,2.9c18.5-0.3,37-0.6,55.4,1.2c22.5,2.2,44.9,5.6,67,10.6   c22.6,5.1,33,20.8,35.8,41.4c4.9,36.2,7,72.6,8.8,109C466.4,218,465.9,231,465.9,244z M393.5,247.2c-0.5-5.6-1.3-11.2-3.2-16.6   c-4.6-13.2-19.1-20.1-32.4-15.3c-9.8,3.6-18.2,16-18.1,26.6c0,3.4,2.2,2.3,3.7,2.1c16-1.4,31.6-0.4,46.7,5.5   C392.9,250.5,393.8,249.9,393.5,247.2z" fill="#5AB82F"/><path d="M53.9,105.6c28.8-28.5,57.4-56.9,86-85.2c0.3,0.3,0.7,0.5,1,0.8c-1,4.3-2.4,8.6-3,12.9   c-2,14.1-0.5,28.3-0.6,42.4c0,5.7,0.3,11.3,0.3,17c0.1,6.3-1.3,7.7-7.5,7.8c-17.7,0.3-35.3-0.5-53,0.4c-5.9,0.3-11.5,1.8-17.1,3.4   C58.2,105.7,56.4,106.5,53.9,105.6z" fill="#5CB932"/></g></svg>