<?xml version="1.0" ?><!DOCTYPE svg  PUBLIC '-//W3C//DTD SVG 1.1//EN'  'http://www.w3.org/Graphics/SVG/1.1/DTD/svg11.dtd'><svg height="78px" id="Capa_1" style="enable-background:new 0 0 92 78;" version="1.1" viewBox="0 0 92 78" width="92px" xml:space="preserve" xmlns="http://www.w3.org/2000/svg" xmlns:xlink="http://www.w3.org/1999/xlink"><path d="M61.896,45.548c-3.59,0-6.502,4.026-6.502,8.996c0,4.971,2.912,8.999,6.502,8.999c3.588,0,6.498-4.028,6.498-8.999  C68.395,49.574,65.484,45.548,61.896,45.548z M84.527,22.132c0.74-1.826,0.777-12.201-3.17-22.132c0,0-9.057,0.993-22.76,10.396  C55.725,9.603,50.861,9.206,46,9.206s-9.723,0.396-12.598,1.189C19.699,0.993,10.645,0,10.645,0  C6.697,9.931,6.732,20.306,7.473,22.132C2.834,27.169,0,33.218,0,41.483c0,35.932,29.809,36.508,37.334,36.508  c1.703,0,5.088,0.004,8.666,0.009c3.578-0.005,6.965-0.009,8.666-0.009C62.191,77.991,92,77.415,92,41.483  C92,33.218,89.166,27.169,84.527,22.132z M46.141,73.574h-0.281c-18.859,0-33.545-2.252-33.545-20.58  c0-4.389,1.549-8.465,5.229-11.847c6.141-5.636,16.527-2.651,28.316-2.651c0.045,0,0.093-0.001,0.141-0.003  c0.049,0.002,0.096,0.003,0.141,0.003c11.789,0,22.178-2.984,28.316,2.651c3.68,3.382,5.229,7.458,5.229,11.847  C79.686,71.322,65,73.574,46.141,73.574z M30.104,45.548c-3.588,0-6.498,4.026-6.498,8.996c0,4.971,2.91,8.999,6.498,8.999  c3.592,0,6.502-4.028,6.502-8.999C36.605,49.574,33.695,45.548,30.104,45.548z"/><g/><g/><g/><g/><g/><g/><g/><g/><g/><g/><g/><g/><g/><g/><g/></svg>