<?xml version="1.0" ?><!DOCTYPE svg  PUBLIC '-//W3C//DTD SVG 1.1//EN'  'http://www.w3.org/Graphics/SVG/1.1/DTD/svg11.dtd'><svg height="512px" style="enable-background:new 0 0 512 512;" version="1.1" viewBox="0 0 512 512" width="512px" xml:space="preserve" xmlns="http://www.w3.org/2000/svg" xmlns:xlink="http://www.w3.org/1999/xlink"><g id="_x31_70-icloud"><g><g id="_x39_2-icloud_5_"><g><g><path d="M384.37,212.759c0.654-4.728,1.003-9.542,1.003-14.415c0-55.641-45.136-100.898-100.628-100.898       c-35.617,0-68.508,19.226-86.306,49.245c-8.967-3.955-18.657-6.003-28.687-6.003c-39.619,0-71.875,32.349-71.875,72.071       c0,1.472,0.031,2.909,0.143,4.319c-41.949,12.199-72.02,51.345-72.02,96.577c0,55.633,45.135,100.898,100.628,100.898h258.744       c55.487,0,100.626-45.266,100.626-100.898C485.999,257.701,440.743,212.296,384.37,212.759L384.37,212.759z" style="fill:#297DEE;"/></g></g></g></g></g><g id="Layer_1"/></svg>