<svg width="500" height="500" xmlns="http://www.w3.org/2000/svg">

 <g>
  <title>background</title>
  <rect fill="none" id="canvas_background" height="402" width="582" y="-1" x="-1"/>
 </g>
 <g>
  <title>Layer 1</title>
  <path fill="#0077b5" id="rect2989-1-7" d="m66.208598,7.325977c-32.529101,0 -58.884466,26.415323 -58.884466,59.004398c0,32.589227 26.355365,59.004383 58.884466,59.004383c32.529101,0 58.884466,-26.415156 58.884466,-59.004383c0,-32.589075 -26.355365,-59.004398 -58.884466,-59.004398zm308.413864,153.627288l0,0.039952c-6.651048,-0.023698 -13.104311,0.242567 -21.546996,0.679592c-18.515969,0.958496 -61.759544,21.020861 -77.593161,53.047997c0,-13.904609 0.159899,-26.674995 0.159899,-45.732411c-18.966058,0 -43.786329,0.119856 -95.622294,0.119856c0,58.193223 -0.63961,264.276201 -0.63961,324.32427l100.379425,0c0,-35.622168 0.479696,-125.100834 0.479696,-181.290598c0,-18.867728 11.405398,-62.442311 58.204874,-62.442311c42.494576,0 54.407166,35.815987 54.407166,62.442311c0,58.519021 -0.439729,141.238769 -0.439729,181.290598l100.979053,0c0,-39.150345 0.359005,-145.496167 -0.839491,-212.591703c-1.455191,-81.465867 -50.93998,-116.224876 -95.342464,-118.968204c-9.137362,-0.564324 -15.93532,-0.895196 -22.586368,-0.91944l0,0.000091zm-358.823441,9.434312l0,322.885137l100.659255,0l0,-322.885137l-100.659255,0z"/>
 </g>
</svg>