<?xml version="1.0" ?><!DOCTYPE svg  PUBLIC '-//W3C//DTD SVG 1.1//EN'  'http://www.w3.org/Graphics/SVG/1.1/DTD/svg11.dtd'><svg enable-background="new 0 0 512 512" height="512px" id="Mediafire_2_" version="1.1" viewBox="0 0 512 512" width="512px" xml:space="preserve" xmlns="http://www.w3.org/2000/svg" xmlns:xlink="http://www.w3.org/1999/xlink"><g id="bg_16_"><g><polygon fill="#006E9E" points="0,0 0,512 355,512 512,354 512,0   "/></g></g><g id="Mediafire"><g><path d="M236.139,180.529c35.043-4.391,49.085,14.354,39.722,21.458c-20.792,12.614-50.703-10.729-109.504-10.729    c-48.575,0-72.135,11.345-75.15,30.042c36.935-13.242,47.71-0.151,33.281,7.51c-16.266,10.497-26.227,8.75-37.575,13.948    C70.702,250.185,58.406,262.771,59,280.312c32.685-21.97,109.799-26.159,126.681,9.656c-19.969,2.798-31.991,15.202-32.207,19.313    c58.885,2.813,104.784,49.319,156.741,53.646c14.522,1.237,46.474,3.545,70.856-7.51C420.664,337.465,453,303.586,453,257.78    C453,145.359,279.444,116.388,236.139,180.529z M347.79,303.916c-37.166,0-92.572-42.943-101.989-43.99    c25.236-2.764,37.722-7.402,62.267-24.678c24.689-17.09,82.557-31.915,95.548,18.24    C411.338,288.237,377.347,303.57,347.79,303.916z" fill="#FFFFFF"/></g></g><g id="Clip_Light_16_"><g><polygon fill="#0690CC" points="355,354 355,512.02 512,354   "/></g></g><g id="Shadow_Clip_16_" opacity="0.102"><g><polygon points="198,512 355,512 355,353.98   "/></g></g></svg>