<svg width="500" height="500" xmlns="http://www.w3.org/2000/svg">

 <g>
  <title>background</title>
  <rect fill="none" id="canvas_background" height="402" width="582" y="-1" x="-1"/>
 </g>
 <g>
  <title>Layer 1</title>
  <path fill="#cb1f26" id="rect2989" d="m267.96397,3.188629c-138.757339,0 -208.69695,96.408562 -208.69695,176.839156c0,48.690007 19.002481,92.010485 59.784033,108.138173c6.68968,2.673106 12.691377,0.125371 14.631896,-7.0525c1.348135,-4.95017 4.53851,-17.460375 5.958125,-22.697666c1.950761,-7.098567 1.228063,-9.599743 -4.174735,-15.8073c-11.755471,-13.434776 -19.29302,-30.856523 -19.29302,-55.528222c0,-71.540074 55.196021,-135.578023 143.765405,-135.578023c78.427621,0 121.513575,46.436616 121.513575,108.462412c0,81.63845 -37.259021,150.57471 -92.574052,150.57471c-30.558052,0 -53.397075,-24.507839 -46.084377,-54.55546c8.773205,-35.86904 25.778072,-74.568438 25.778072,-100.477718c0,-23.166851 -12.892971,-42.477059 -39.437206,-42.477059c-31.232158,0 -56.25779,31.333194 -56.25779,73.281047c0,26.721094 9.281726,44.78736 9.281726,44.78736c0,0 -31.965684,131.27442 -37.572741,154.263072c-11.152876,45.789186 -1.698557,101.907883 -0.891687,107.570725c0.469801,3.366187 4.949184,4.155745 6.971425,1.621271c2.869895,-3.653261 40.097727,-48.162896 52.731533,-92.655127c3.584846,-12.583364 20.549499,-77.780037 20.549499,-77.780037c10.151974,18.771069 39.796976,35.26244 71.335522,35.26244c93.870083,0 157.586673,-82.941504 157.586673,-193.983995c0.010781,-83.984822 -73.396545,-162.20726 -184.904925,-162.20726z"/>
 </g>
</svg>