<?xml version="1.0" ?><!DOCTYPE svg  PUBLIC '-//W3C//DTD SVG 1.1//EN'  'http://www.w3.org/Graphics/SVG/1.1/DTD/svg11.dtd'><svg height="512px" style="enable-background:new 0 0 512 512;" version="1.1" viewBox="0 0 512 512" width="512px" xml:space="preserve" xmlns="http://www.w3.org/2000/svg" xmlns:xlink="http://www.w3.org/1999/xlink"><g id="_x34_2-quora_x2C__question"><g><g><g><path d="M367.422,415.703c60.43-37.95,100.664-105.927,100.664-183.411      c0-118.998-94.965-215.537-212.086-215.537c-117.156,0-212.086,96.539-212.086,215.566      c0,119.084,94.931,215.563,212.086,215.563c17.234,0,33.938-2.128,49.986-6.073c20.1,36.696,50.818,62.711,115.9,50.3v-36.575      C421.887,455.535,380.162,445.011,367.422,415.703L367.422,415.703z M365.936,260.849c0,35.977-11.457,68.665-30.006,92.771      c-23.297-24.91-59.83-45.344-106.18-42.738v42.375c0,0,31.467,1.257,52.969,38.345c-8.082,2.391-16.43,3.675-25.111,3.675      c-59.826,0-108.294-60.196-108.294-134.457v-55.509c0-74.282,48.468-134.484,108.294-134.484      c59.832,0,108.355,60.202,108.355,134.484L365.936,260.849z M365.936,260.849" style="fill:#F84437;"/></g></g></g></g><g id="Layer_1"/></svg>