<?xml version="1.0" ?><!DOCTYPE svg  PUBLIC '-//W3C//DTD SVG 1.1//EN'  'http://www.w3.org/Graphics/SVG/1.1/DTD/svg11.dtd'><svg height="100%" style="fill-rule:evenodd;clip-rule:evenodd;stroke-linejoin:round;stroke-miterlimit:2;" version="1.1" viewBox="0 0 512 512" width="100%" xml:space="preserve" xmlns="http://www.w3.org/2000/svg" xmlns:serif="http://www.serif.com/" xmlns:xlink="http://www.w3.org/1999/xlink"><g><path d="M430.419,0c45.05,0 81.581,36.526 81.581,81.592l0,348.831c0,45.053 -36.531,81.583 -81.581,81.583l-348.835,0c-45.056,0 -81.586,-36.53 -81.586,-81.583l0,-348.831c0,-45.066 36.53,-81.592 81.586,-81.592l348.835,0Z" style="fill:#f7ec1e;fill-rule:nonzero;"/><path d="M257.879,432.031c-0.966,0 -1.917,-0.027 -2.866,-0.072l-0.002,0c-0.605,0.046 -1.239,0.072 -1.872,0.072c-22.22,0 -36.482,-10.081 -50.273,-19.831c-9.523,-6.73 -18.509,-13.081 -29.098,-14.845c-5.166,-0.856 -10.309,-1.289 -15.279,-1.289c-8.953,0 -16.016,1.382 -21.173,2.39c-3.133,0.613 -5.837,1.14 -7.891,1.14c-2.146,0 -4.472,-0.464 -5.482,-3.918c-0.88,-2.993 -1.515,-5.89 -2.125,-8.693c-1.575,-7.216 -2.694,-11.652 -5.719,-12.117c-35.241,-5.443 -45.329,-12.866 -47.578,-18.133c-0.319,-0.753 -0.499,-1.507 -0.543,-2.254c-0.114,-2.023 1.319,-3.811 3.319,-4.136c54.177,-8.923 78.471,-64.293 79.48,-66.645c0.027,-0.065 0.056,-0.128 0.086,-0.193c3.316,-6.719 3.966,-12.552 1.936,-17.333c-3.717,-8.763 -15.843,-12.613 -23.869,-15.159c-1.964,-0.621 -3.826,-1.209 -5.294,-1.79c-16.017,-6.331 -17.35,-12.831 -16.721,-16.143c1.074,-5.644 8.616,-9.578 14.718,-9.578c1.672,0 3.145,0.297 4.384,0.875c7.205,3.375 13.698,5.086 19.301,5.086c7.741,0 11.12,-3.254 11.534,-3.68c-0.197,-3.667 -0.441,-7.497 -0.691,-11.448c-1.613,-25.614 -3.613,-57.44 4.491,-75.607c24.287,-54.455 75.789,-58.686 90.995,-58.686c0.39,0 6.667,-0.066 6.667,-0.066l0.9,-0.005c15.242,0 66.857,4.239 91.157,58.724c8.105,18.176 6.1,50.03 4.485,75.624l-0.068,1.113c-0.224,3.564 -0.44,7.029 -0.621,10.345c0.388,0.394 3.495,3.387 10.514,3.656l0.008,0c5.334,-0.204 11.463,-1.905 18.19,-5.056c1.973,-0.921 4.162,-1.115 5.653,-1.115c2.276,0 4.584,0.441 6.5,1.241l0.117,0.047c5.441,1.928 9.006,5.742 9.082,9.727c0.071,3.753 -2.794,9.395 -16.848,14.946c-1.456,0.573 -3.318,1.164 -5.289,1.79c-8.036,2.549 -20.157,6.396 -23.872,15.157c-2.032,4.779 -1.381,10.608 1.934,17.331c0.029,0.066 0.063,0.128 0.088,0.197c1.008,2.349 25.281,57.705 79.482,66.636c2.001,0.331 3.43,2.116 3.32,4.14c-0.045,0.76 -0.23,1.524 -0.554,2.267c-2.236,5.229 -12.315,12.643 -47.57,18.09c-2.88,0.442 -3.996,4.196 -5.715,12.065c-0.624,2.865 -1.257,5.677 -2.128,8.637c-0.752,2.567 -2.352,3.769 -5.043,3.769l-0.439,0c-1.867,0 -4.523,-0.335 -7.889,-0.996c-5.968,-1.167 -12.66,-2.242 -21.174,-2.242c-4.972,0 -10.117,0.433 -15.287,1.289c-10.576,1.764 -19.557,8.103 -29.062,14.822c-13.819,9.773 -28.079,19.854 -50.306,19.854Z" style="fill:#fff;fill-rule:nonzero;"/><path d="M259.214,76.004l-0.015,0c-0.331,0 -0.641,0 -0.936,0.007c0,0 -6.14,0.06 -6.628,0.06c-15.8,0 -69.349,4.402 -94.612,61.044c-8.497,19.055 -6.46,51.419 -4.827,77.426c0.191,3.067 0.398,6.25 0.572,9.326c-1.306,0.724 -3.693,1.625 -7.45,1.625c-5.015,0 -10.942,-1.584 -17.615,-4.711c-1.772,-0.83 -3.814,-1.245 -6.07,-1.245c-7.815,0 -17.163,5.142 -18.618,12.805c-1.05,5.518 1.419,13.568 19.159,20.575c1.602,0.633 3.526,1.242 5.559,1.884c7.328,2.328 18.406,5.843 21.413,12.925c1.556,3.668 0.935,8.39 -1.843,14.029c-0.061,0.128 -0.122,0.254 -0.177,0.385c-0.975,2.269 -24.421,55.716 -76.474,64.285c-4.003,0.66 -6.862,4.231 -6.641,8.281c0.069,1.204 0.355,2.403 0.848,3.567c3.906,9.133 20.388,15.826 50.394,20.483c1.003,1.357 2.044,6.147 2.683,9.068c0.627,2.88 1.274,5.85 2.196,8.983c0.905,3.081 3.254,6.763 9.293,6.763c2.44,0 5.318,-0.563 8.65,-1.217c4.999,-0.977 11.845,-2.314 20.414,-2.314c4.752,0 9.678,0.413 14.638,1.235c9.682,1.613 17.909,7.429 27.435,14.162c13.642,9.646 29.093,20.567 52.577,20.567c0.645,0 1.294,-0.019 1.936,-0.067c0.762,0.034 1.751,0.067 2.804,0.067c23.491,0 38.939,-10.922 52.572,-20.563c9.547,-6.743 17.769,-12.556 27.451,-14.166c4.951,-0.822 9.878,-1.235 14.632,-1.235c8.175,0 14.644,1.04 20.414,2.167c3.614,0.707 6.524,1.068 8.649,1.068l0.223,0.003l0.216,0c4.461,0 7.607,-2.357 8.857,-6.634c0.904,-3.07 1.552,-5.963 2.193,-8.893c0.636,-2.911 1.675,-7.681 2.674,-9.029c30.014,-4.66 46.492,-11.342 50.39,-20.436c0.501,-1.164 0.789,-2.373 0.858,-3.587c0.225,-4.053 -2.637,-7.619 -6.637,-8.277c-52.078,-8.583 -75.503,-62.018 -76.476,-64.284c-0.056,-0.131 -0.115,-0.261 -0.179,-0.387c-2.78,-5.638 -3.395,-10.356 -1.84,-14.024c3.004,-7.082 14.077,-10.597 21.406,-12.92c2.051,-0.65 3.978,-1.264 5.563,-1.889c12.982,-5.127 19.495,-11.424 19.357,-18.715c-0.112,-5.727 -4.572,-10.837 -11.662,-13.369l-0.021,-0.007c-2.385,-0.99 -5.215,-1.53 -7.987,-1.53c-1.895,0 -4.707,0.258 -7.333,1.486c-6.175,2.894 -11.725,4.467 -16.51,4.681c-3.173,-0.148 -5.249,-0.948 -6.433,-1.6c0.15,-2.639 0.319,-5.356 0.498,-8.194l0.066,-1.104c1.643,-26.024 3.681,-58.416 -4.824,-77.485c-25.274,-56.667 -78.937,-61.075 -94.782,-61.075Zm0,7.941c14.428,0.002 64.116,3.873 87.533,56.37c7.707,17.282 5.736,48.597 4.149,73.756c-0.251,3.99 -0.495,7.856 -0.693,11.555l-0.087,1.586l1.063,1.181c0.424,0.478 4.435,4.665 13.347,5.011l0.149,0.004l0.146,-0.004c5.891,-0.221 12.532,-2.049 19.745,-5.429c1.058,-0.498 2.471,-0.74 3.966,-0.74c1.706,0 3.515,0.32 5.008,0.95l0.224,0.09c3.779,1.324 6.452,3.824 6.497,6.081c0.023,1.283 -0.937,5.882 -14.337,11.174c-1.308,0.519 -3.035,1.065 -5.032,1.696c-8.72,2.772 -21.893,6.947 -26.328,17.39c-2.498,5.894 -1.818,12.838 2.029,20.645c1.585,3.693 26.469,59.766 82.486,68.995c-0.016,0.259 -0.078,0.554 -0.23,0.897c-0.952,2.236 -6.987,9.957 -44.532,15.752c-5.878,0.907 -7.319,7.488 -8.99,15.148c-0.596,2.738 -1.215,5.501 -2.058,8.363c-0.254,0.865 -0.303,0.916 -1.233,0.916l-0.439,0c-1.665,0 -4.197,-0.346 -7.128,-0.92c-5.321,-1.04 -12.618,-2.316 -21.935,-2.316c-5.2,0 -10.561,0.452 -15.934,1.343c-11.489,1.913 -20.837,8.524 -30.737,15.517c-13.288,9.397 -27.023,19.106 -47.984,19.106c-0.909,0 -1.807,-0.029 -2.703,-0.072l-0.235,-0.012l-0.239,0.021c-0.514,0.043 -1.032,0.063 -1.563,0.063c-20.956,0 -34.698,-9.709 -47.984,-19.103c-9.896,-6.996 -19.246,-13.607 -30.733,-15.52c-5.375,-0.891 -10.733,-1.343 -15.933,-1.343c-9.315,0 -16.612,1.419 -21.937,2.461c-2.93,0.576 -5.465,1.068 -7.127,1.068c-1.358,0 -1.386,-0.079 -1.673,-1.06c-0.842,-2.864 -1.459,-5.701 -2.056,-8.436c-1.673,-7.659 -3.12,-14.28 -8.991,-15.186c-37.548,-5.798 -43.58,-13.537 -44.534,-15.769c-0.15,-0.346 -0.213,-0.648 -0.227,-0.911c56.013,-9.229 80.897,-65.295 82.482,-68.998c3.847,-7.811 4.531,-14.75 2.03,-20.641c-4.431,-10.446 -17.606,-14.626 -26.327,-17.398c-1.998,-0.628 -3.723,-1.177 -5.033,-1.696c-11.322,-4.471 -14.8,-8.974 -14.279,-11.705c0.599,-3.148 6.055,-6.348 10.816,-6.348c1.071,0 2.006,0.171 2.701,0.498c7.733,3.618 14.797,5.46 20.984,5.46c9.736,0 14.071,-4.531 14.531,-5.044l1.056,-1.179l-0.086,-1.581c-0.198,-3.692 -0.441,-7.557 -0.694,-11.544c-1.584,-25.159 -3.555,-56.453 4.153,-73.739c23.326,-52.304 72.771,-56.335 87.369,-56.335c0.36,0 6.705,-0.062 6.705,-0.062c0.272,-0.004 0.558,-0.006 0.862,-0.006Z" style="fill:#030505;fill-rule:nonzero;"/></g></svg>