<svg width="512" height="512" xmlns="http://www.w3.org/2000/svg">

 <g>
  <title>background</title>
  <rect fill="none" id="canvas_background" height="402" width="582" y="-1" x="-1"/>
 </g>
 <g>
  <title>Layer 1</title>
  <path stroke="null" id="svg_3" fill="#10bc4c" d="m411.631184,411.182963c-6.322095,10.331229 -19.891471,13.569375 -30.222699,7.24728c-82.804029,-50.576762 -186.887305,-61.987373 -309.474274,-33.923438c-11.873203,2.775554 -23.592209,-4.625923 -26.367763,-16.499127c-2.775554,-11.873203 4.625923,-23.592209 16.499127,-26.367763c134.305976,-30.685292 249.33727,-17.424311 342.31833,39.320349c10.331229,6.322095 13.569375,19.891471 7.24728,30.222699m43.175285,-95.910811c-8.018267,12.952585 -24.825789,16.961719 -37.778374,9.097649c-94.677232,-58.286635 -239.160239,-75.094156 -351.107585,-41.016521c-14.49456,4.471726 -29.914305,-3.854936 -34.231833,-18.349496c-4.317528,-14.49456 3.854936,-29.914305 18.349496,-34.231833c127.98388,-38.857756 287.115645,-20.045668 395.824844,46.876024c12.798388,7.709872 16.961719,24.671591 8.943452,37.624177m3.700739,-99.919945c-113.643518,-67.384284 -300.993415,-73.706379 -409.394219,-40.708126c-17.424311,5.242713 -35.773808,-4.625923 -41.170718,-21.896037c-5.242713,-17.424311 4.471726,-35.773808 21.896037,-41.170718c124.437339,-37.778374 331.370312,-30.531094 462.129746,47.184419c15.72814,9.251847 20.816655,29.451712 11.564808,45.179852c-9.097649,15.573942 -29.451712,20.662458 -45.025654,11.410611"/>
 </g>
</svg>