<?xml version="1.0" ?><svg enable-background="new 0 0 24 24" id="Layer_1" version="1.1" viewBox="0 0 24 24" xml:space="preserve" xmlns="http://www.w3.org/2000/svg" xmlns:xlink="http://www.w3.org/1999/xlink"><g><linearGradient gradientUnits="userSpaceOnUse" id="SVGID_1_" x1="12" x2="12" y1="24" y2="-9.094947e-13"><stop offset="0" style="stop-color:#1BA8E1"/><stop offset="1" style="stop-color:#061D32"/></linearGradient><path d="M12,0C5.3833008,0,0,5.3828125,0,12s5.3833008,12,12,12s12-5.3828125,12-12S18.6166992,0,12,0z" fill="url(#SVGID_1_)"/><circle cx="15.5" cy="9.5" fill="#FFFFFF" r="1.5"/><path d="M15.5,5C13.0185547,5,11,7.0185547,11,9.5c0,0.1279297,0.0117188,0.2519531,0.03125,0.4052734   L8.6171265,13.062439C8.4145508,13.0307007,8.2113037,13,8,13c-0.94104,0-1.7957764,0.34021-2.4796753,0.8860474   l-5.5037861-2.5215387C0.0057965,11.5724554,0,11.7894287,0,12c0,1.343811,0.2160528,2.6262226,0.6253545,3.833498   l3.4196894,1.6121197C4.2699585,19.4398193,5.9470215,21,8,21c2.2052612,0,3.9993896-1.793396,3.9998779-3.9990234   l3.6470947-3.0029297C18.0605469,13.9199219,20,11.9316406,20,9.5C20,7.0185547,17.9814453,5,15.5,5z M8,19   c-0.4224854,0-0.8133545-0.1333618-1.1365356-0.3577881c0.0658569,0.0067749,0.1309814,0.0218506,0.1970825,0.0218506   c0.2695313,0,0.5395508-0.0566406,0.7919922-0.1699219c0.5170898-0.2314453,0.90625-0.6757813,1.0673828-1.2197266   c0.2639771-0.890686-0.1551514-1.8457031-0.9725342-2.269104C7.965271,15.0048218,7.9819946,15,8,15c1.1030273,0,2,0.8974609,2,2   S9.1030273,19,8,19z M15.5,12c-1.378418,0-2.5-1.1210938-2.5-2.5S14.121582,7,15.5,7S18,8.1210938,18,9.5S16.878418,12,15.5,12z" fill="#FFFFFF"/><path d="M12,0.25c5.3285522,0,9.8440552,3.4422607,11.4705811,8.2207642   C21.9632568,3.565979,17.3988037,0,12,0S2.0368042,3.565979,0.5294189,8.4706421C2.1559448,3.6922607,6.6713867,0.25,12,0.25z" fill="#FFFFFF" opacity="0.2"/><path d="M12,23.75c-4.7450914,0-8.8374472-2.6986141-10.8253527-6.6640053   c-0.2444347-0.4875889-0.4570514-0.9943295-0.6351512-1.5175619c0.1608156,0.5232897,0.3563147,1.0308924,0.5838224,1.5202017   C3.02824,21.1856155,7.1771917,24,12,24c4.6758442,0,8.7214317-2.6558895,10.7003746-6.5535698   c0.305975-0.6026421,0.5625458-1.234972,0.7644005-1.8917618c-0.1286106,0.3778324-0.2752476,0.7471523-0.4388905,1.1069431   C21.1199665,20.8520508,16.9072742,23.75,12,23.75z" fill="#010101" opacity="0.1"/><linearGradient gradientUnits="userSpaceOnUse" id="SVGID_2_" x1="1.1248375" x2="22.8751621" y1="6.9288282" y2="17.0711708"><stop offset="0" style="stop-color:#FFFFFF;stop-opacity:0.2"/><stop offset="1" style="stop-color:#FFFFFF;stop-opacity:0"/></linearGradient><path d="M12,0C5.3833008,0,0,5.3828125,0,12s5.3833008,12,12,12s12-5.3828125,12-12S18.6166992,0,12,0z" fill="url(#SVGID_2_)"/></g><g/><g/><g/><g/><g/><g/><g/><g/><g/><g/><g/><g/><g/><g/><g/></svg>