<?xml version="1.0" ?><!DOCTYPE svg  PUBLIC '-//W3C//DTD SVG 1.1//EN'  'http://www.w3.org/Graphics/SVG/1.1/DTD/svg11.dtd'><svg enable-background="new 0 0 512 512" id="Layer_1" version="1.1" viewBox="0 0 512 512" xml:space="preserve" xmlns="http://www.w3.org/2000/svg" xmlns:xlink="http://www.w3.org/1999/xlink"><circle cx="256" cy="256" fill="#0079BF" id="ellipse" r="256"/><path d="M282.7,136v133.3c0,14.7,11.9,26.7,26.7,26.7h80c14.7,0,26.7-11.9,26.7-26.7V136  c0-14.7-11.9-26.7-26.7-26.7h-80C294.6,109.3,282.7,121.3,282.7,136z M96,136v240c0,14.7,11.9,26.7,26.7,26.7h80  c14.7,0,26.7-11.9,26.7-26.7V136c0-14.7-11.9-26.7-26.7-26.7h-80C107.9,109.3,96,121.3,96,136z" fill="#FFFFFF" id="logo"/></svg>