<?xml version="1.0" ?><!DOCTYPE svg  PUBLIC '-//W3C//DTD SVG 1.1//EN'  'http://www.w3.org/Graphics/SVG/1.1/DTD/svg11.dtd'><svg enable-background="new 0 0 100 100" height="100px" id="Layer_1" version="1.1" viewBox="0 0 100 100" width="100px" xml:space="preserve" xmlns="http://www.w3.org/2000/svg" xmlns:xlink="http://www.w3.org/1999/xlink"><g><circle cx="50" cy="50" fill="#00A500" r="45"/><g><path clip-rule="evenodd" d="M50.124,63.078c-0.162-0.156-0.254-0.322-0.365-0.473    c-0.108-0.143-0.21-0.291-0.314-0.436c-0.111-0.156-0.222-0.312-0.334-0.467c-0.102-0.146-0.208-0.293-0.312-0.439    c-0.112-0.154-0.222-0.311-0.332-0.467c-0.105-0.145-0.21-0.289-0.313-0.436c-0.112-0.156-0.22-0.314-0.334-0.469    c-0.106-0.139-0.19-0.297-0.338-0.434c-2.455,2.732-5.489,4.156-9.162,4.074c-2.765-0.062-5.201-1.039-7.293-2.852    c-4.41-3.826-5.438-10.6-1.641-15.707c-0.468-1.443-1.03-2.854-2.046-4.027c0.061-0.096,0.139-0.072,0.204-0.072    c0.444-0.002,0.886-0.002,1.328-0.002c1.961,0,3.92,0,5.881,0c0.13,0,0.262,0,0.38,0c0.04-0.037,0.072-0.057,0.092-0.086    c0.384-0.561,0.88-1.006,1.428-1.396c0.861-0.617,1.809-1.068,2.799-1.434c1.146-0.426,2.325-0.723,3.524-0.939    c1.779-0.322,3.576-0.469,5.382-0.529c1.291-0.047,2.582-0.027,3.872,0.037c1.947,0.096,3.878,0.322,5.779,0.781    c1.14,0.277,2.251,0.635,3.314,1.139c0.682,0.32,1.333,0.697,1.927,1.164c0.376,0.299,0.728,0.623,1.012,1.012    c0.082,0.115,0.18,0.188,0.322,0.201c0.166,0.016,0.33,0.049,0.495,0.049c2.26,0.004,4.519,0.002,6.777,0.002    c0.13,0,0.258,0,0.418,0c-0.048,0.191-0.184,0.277-0.268,0.398c-0.088,0.127-0.188,0.246-0.276,0.375s-0.17,0.26-0.25,0.393    c-0.08,0.135-0.155,0.27-0.228,0.406c-0.08,0.148-0.154,0.297-0.229,0.447c-0.065,0.141-0.128,0.283-0.189,0.426    s-0.122,0.285-0.18,0.43c-0.059,0.145-0.11,0.291-0.164,0.436c-0.052,0.145-0.102,0.291-0.152,0.432    c2.063,2.627,2.938,5.582,2.505,8.875c-0.384,2.928-1.73,5.375-3.984,7.283c-2.46,2.082-5.323,2.996-8.54,2.713    c-3.206-0.285-5.817-1.736-7.922-4.172c-0.234,0.311-0.398,0.641-0.59,0.953c-0.188,0.305-0.366,0.617-0.548,0.926    c-0.19,0.318-0.376,0.639-0.567,0.955C50.508,62.451,50.338,62.766,50.124,63.078z M47.963,51.955    c-0.021-5.156-4.158-9.311-9.298-9.318c-5.306-0.01-9.321,4.316-9.34,9.273c-0.018,5.131,4.162,9.34,9.296,9.355    C43.593,61.283,47.929,57.275,47.963,51.955z M70.671,51.973c0.036-4.99-4.002-9.32-9.281-9.336    c-5.342-0.016-9.33,4.357-9.349,9.275c-0.016,5.078,4.116,9.326,9.271,9.354C66.441,61.293,70.677,57.113,70.671,51.973z     M38.911,41.068c0.03,0.004,0.062,0.016,0.092,0.012c1.218-0.125,2.409,0.018,3.578,0.354c2.107,0.602,3.797,1.814,5.12,3.549    c0.93,1.221,1.585,2.582,2.073,4.027c0.11,0.328,0.21,0.658,0.313,0.988c0.11-0.033,0.104-0.127,0.126-0.203    c0.218-0.732,0.47-1.455,0.778-2.154c0.634-1.436,1.451-2.748,2.589-3.838c2.131-2.037,4.684-2.924,7.618-2.725    c0.042,0.002,0.086,0,0.148,0c-0.049-0.146-0.156-0.209-0.244-0.283c-0.45-0.377-0.938-0.697-1.451-0.98    c-0.944-0.523-1.941-0.918-2.979-1.213c-1.463-0.42-2.956-0.656-4.476-0.742c-1.697-0.094-3.391-0.092-5.084,0.074    c-1.107,0.109-2.199,0.299-3.272,0.59c-1.228,0.332-2.405,0.787-3.502,1.432c-0.456,0.268-0.89,0.562-1.286,0.91    C38.993,40.918,38.909,40.957,38.911,41.068z" fill="#FFFFFF" fill-rule="evenodd"/><path clip-rule="evenodd" d="M44.207,51.969c0.014,2.986-2.441,5.574-5.611,5.551    c-3.051-0.02-5.544-2.502-5.524-5.605c0.022-3.188,2.657-5.551,5.596-5.533C41.686,46.396,44.234,48.885,44.207,51.969z     M38.655,55.811c1.936,0.012,3.84-1.531,3.849-3.855c0.006-2.176-1.735-3.877-3.879-3.865c-2.299,0.012-3.85,1.904-3.846,3.857    C34.781,54.072,36.522,55.83,38.655,55.811z" fill="#FFFFFF" fill-rule="evenodd"/><path clip-rule="evenodd" d="M61.341,46.387c3.061-0.035,5.574,2.5,5.59,5.539    c0.014,2.943-2.354,5.572-5.539,5.594c-3.163,0.023-5.602-2.562-5.604-5.561C55.786,48.869,58.322,46.363,61.341,46.387z     M65.218,51.955c0.023-1.969-1.552-3.852-3.837-3.865c-2.316-0.014-3.884,1.896-3.884,3.857c0,2.092,1.711,3.854,3.838,3.865    C63.456,55.824,65.229,54.088,65.218,51.955z" fill="#FFFFFF" fill-rule="evenodd"/><path clip-rule="evenodd" d="M38.657,50.066c1.048,0.008,1.871,0.857,1.871,1.908    c0,0.844-0.659,1.854-1.883,1.859c-1.074,0.008-1.888-0.844-1.89-1.889S37.609,50.059,38.657,50.066z" fill="#FFFFFF" fill-rule="evenodd"/><path clip-rule="evenodd" d="M63.248,51.936c0.002,0.971-0.741,1.895-1.881,1.898    c-1.109,0.006-1.901-0.873-1.894-1.885c0.009-1.191,0.982-1.881,1.861-1.883C62.385,50.064,63.238,50.891,63.248,51.936z" fill="#FFFFFF" fill-rule="evenodd"/></g></g></svg>