<?xml version="1.0" ?><!DOCTYPE svg  PUBLIC '-//W3C//DTD SVG 1.1//EN'  'http://www.w3.org/Graphics/SVG/1.1/DTD/svg11.dtd'><svg height="100%" style="fill-rule:evenodd;clip-rule:evenodd;stroke-linejoin:round;stroke-miterlimit:2;" version="1.1" viewBox="0 0 512 512" width="100%" xml:space="preserve" xmlns="http://www.w3.org/2000/svg" xmlns:serif="http://www.serif.com/" xmlns:xlink="http://www.w3.org/1999/xlink"><path d="M511.751,137.03c-2.279,49.837 -37.085,118.065 -104.422,204.686c-69.61,90.446 -128.51,135.69 -176.676,135.69c-29.852,0 -55.11,-27.532 -75.739,-82.635c-13.775,-50.511 -27.537,-101.015 -41.324,-151.525c-15.321,-55.074 -31.746,-82.641 -49.329,-82.641c-3.832,0 -17.234,8.059 -40.184,24.107l-24.077,-31.021c25.264,-22.194 50.185,-44.387 74.705,-66.623c33.707,-29.107 59.025,-44.423 75.881,-45.97c39.836,-3.831 64.361,23.405 73.566,81.697c9.949,62.897 16.839,102.018 20.7,117.322c11.501,52.193 24.142,78.259 37.935,78.259c10.704,0 26.81,-16.927 48.284,-50.793c21.426,-33.843 32.91,-59.591 34.463,-77.298c3.064,-29.208 -8.426,-43.844 -34.463,-43.844c-12.263,0 -24.904,2.816 -37.905,8.39c25.17,-82.405 73.247,-122.429 144.198,-120.144c52.612,1.541 77.427,35.655 74.387,102.343Z" style="fill:#17b7ea;fill-rule:nonzero;"/></svg>