<?xml version="1.0" ?><!DOCTYPE svg  PUBLIC '-//W3C//DTD SVG 1.1//EN'  'http://www.w3.org/Graphics/SVG/1.1/DTD/svg11.dtd'><svg enable-background="new 0 0 512 512" id="Layer_1" version="1.1" viewBox="0 0 512 512" xml:space="preserve" xmlns="http://www.w3.org/2000/svg" xmlns:xlink="http://www.w3.org/1999/xlink"><g><path d="M256.7,507.8C119,507.8,8,395.3,8.6,255.1C9.1,117.6,120.3,4.7,260,6.2c136.7,1.5,246.9,114.1,245.5,253.4   C504.2,396.4,394.3,507.6,256.7,507.8z M256.8,488.2c124.2,0.4,227.7-100.6,229.1-228.3C487.4,129.4,383.3,27,259.5,25.8   C133.5,24.5,28.8,126.6,28.1,254.9C27.5,384.5,129.7,488.2,256.8,488.2z" fill="#6A247B"/><path d="M412.7,257.2c0,42.2,0,84.3,0.1,126.5c0,3.7-0.9,5.4-4.6,6.8c-18.9,7.3-37.8,14.9-56.5,22.6   c-3.1,1.3-5,0.9-7.4-1.4c-43.3-42.2-86.7-84.3-130-126.4c-8.3-8.1-8.3-8.2-17.5-1.2c-24.4,18.5-48.8,37.1-73,55.8   c-2.9,2.2-5,2.1-8.4,1c-11.4-3.7-14.8-10.4-14.6-22.7c1-44.1,0.4-88.3,0.3-132.5c0-3.7,1-6,4.5-7.2c1.3-0.4,2.6-0.9,3.6-1.7   c7.6-6.2,13.5-3.8,20.7,1.9c24,19.1,48.6,37.3,72.9,56c2.8,2.1,4.2,1.8,6.5-0.5c44.7-43.7,89.4-87.2,134.1-130.9   c2.7-2.7,4.9-3.7,9-2.1c18.9,7.9,37.9,15.4,56.9,22.8c3.5,1.3,3.3,3.5,3.3,6.2C412.7,172.6,412.7,214.9,412.7,257.2   C412.7,257.2,412.7,257.2,412.7,257.2z M336.7,197.3c-2.4,1.7-4,2.7-5.6,3.9c-23.5,17.5-46.9,35.1-70.4,52.6   c-3.4,2.5-3.3,3.8,0,6.2c18.8,14,37.5,28.2,56.3,42.3c6.4,4.8,12.9,9.6,19.7,14.7C336.7,276.8,336.7,237.6,336.7,197.3z    M129.4,221.5c0,24.3,0,47.5,0,71.5c13-11.8,25.5-23.1,37.9-34.3c2.2-2,0.5-3.1-0.9-4.3c-8.8-7.9-17.6-15.8-26.5-23.6   C136.7,227.8,133.3,224.9,129.4,221.5z" fill="#69227A"/></g></svg>