<?xml version="1.0" ?><!DOCTYPE svg  PUBLIC '-//W3C//DTD SVG 1.1//EN'  'http://www.w3.org/Graphics/SVG/1.1/DTD/svg11.dtd'><svg height="512px" style="enable-background:new 0 0 512 512;" version="1.1" viewBox="0 0 512 512" width="512px" xml:space="preserve" xmlns="http://www.w3.org/2000/svg" xmlns:xlink="http://www.w3.org/1999/xlink"><g id="_x33_64-vk"><g><g><path d="M475.515,137.899c3.16-10.674,0-18.53-15.2-18.53h-50.297c-12.809,0-18.702,6.746-21.861,14.261     c0,0-25.617,62.422-61.825,102.899c-11.698,11.699-17.078,15.457-23.482,15.457c-3.158,0-8.027-3.758-8.027-14.432v-99.655     c0-12.809-3.588-18.53-14.176-18.53h-79.075c-8.027,0-12.809,5.978-12.809,11.528c0,12.125,18.104,14.943,19.983,49.101v74.123     c0,16.225-2.904,19.212-9.308,19.212c-17.079,0-58.581-62.678-83.174-134.409c-4.952-13.919-9.821-19.555-22.715-19.555H43.25     c-14.346,0-17.25,6.746-17.25,14.261c0,13.32,17.079,79.502,79.502,166.945c41.587,59.689,100.167,92.056,153.453,92.056     c32.022,0,35.951-7.173,35.951-19.555c0-57.045-2.903-62.425,13.152-62.425c7.428,0,20.237,3.757,50.127,32.534     c34.155,34.158,39.792,49.445,58.92,49.445h50.297c14.347,0,21.606-7.173,17.421-21.351     c-9.564-29.801-74.208-91.114-77.111-95.213c-7.429-9.564-5.295-13.835,0-22.375     C407.799,253.608,469.195,167.189,475.515,137.899L475.515,137.899z" style="fill:#5181B8;"/></g></g></g><g id="Layer_1"/></svg>