<?xml version="1.0" ?><!DOCTYPE svg  PUBLIC '-//W3C//DTD SVG 1.1//EN'  'http://www.w3.org/Graphics/SVG/1.1/DTD/svg11.dtd'><svg enable-background="new 0 0 512 512" id="Layer_1" version="1.1" viewBox="0 0 512 512" xml:space="preserve" xmlns="http://www.w3.org/2000/svg" xmlns:xlink="http://www.w3.org/1999/xlink"><g><path d="M254.9,507.9C117.1,507.9,5.9,395.3,6.5,255.2c0.6-138,112.1-250.5,251.4-249   c136.2,1.5,246.9,113.4,245.6,253.3C502.3,396.8,392.1,507.6,254.9,507.9z M254.7,488.1c124.2,0.5,227.8-100.5,229.2-228.4   c1.5-130.7-102.9-232.8-226.6-234C131.6,24.6,26.9,126.4,26.2,254.7C25.4,384.4,127.6,488.1,254.7,488.1z" fill="#218DBE"/><path d="M357.7,336.9c3-9.3,6.2-18.6,8.8-28c4.9-17.6,10.8-34.9,16.6-52.3c11.5-34.3,6.8-66.2-13.7-95.9   c-5.6-8.1-10.2-16.7-12.1-26.6c-3-15.8,4.8-31.3,18.8-37c14.4-5.9,31.9-0.8,40.8,12.1c6.9,10.1,9.3,21.6,10,33.5   c1.8,30.7-4.8,59.7-15.8,88.2c-9.5,24.8-17.5,50.3-26.2,75.4c-8.6,24.8-17.1,49.7-25.7,74.5c-2.9,8.5-6,16.9-8.8,25.4   c-1.4,4.2-3.6,5.6-8.2,5.9c-7.4,0.4-11-1.8-13.9-9c-8.5-21-15.7-42.4-23.5-63.6c-11-29.9-21.8-60-32.7-90c-0.4-1.2-0.6-2.9-2.3-2.7   c-1.7,0.1-1.6,1.9-2,3.1c-7.6,22-15.1,44-22.7,66c-10.7,30.9-21.6,61.9-32.3,92.8c-0.8,2.2-1.9,3.4-4.3,3.2c-0.3,0-0.7,0-1,0   c-13.1,0.4-12.9,0.4-17.3-11.8c-16.3-44.9-32.6-89.7-48.9-134.6c-13.2-36.3-26.3-72.5-39.5-108.8C98.9,149,99,149,90.6,149   c-2.5,0-5,0-7.5-0.2c-6-0.5-10-4.7-9.9-9.9c0.2-5.4,4.3-9,10.4-9.1c10.3-0.2,20.6-0.6,31-0.5c18.5,0,37-0.3,55.4-1.9   c1.5-0.1,3-0.2,4.5-0.2c4.3-0.1,7.2,1.8,7.7,6.1c0.5,4.3-1.7,7.2-5.9,7.9c-5.6,0.9-11.2,1.4-16.8,1.7c-3.8,0.2-4.5,1.1-3.2,4.8   c14.1,41.6,28,83.2,42,124.8c6.5,19.5,13,39.1,19.6,58.7c0.8,2.4,1.2,6.5,3.5,6.6c2.9,0.1,2.5-4.1,3.3-6.4   c11.9-35.5,23.7-71,35.6-106.4c0.8-2.5,1-4.8,0.1-7.3c-8.6-23.4-17.2-46.8-25.5-70.3c-1.2-3.3-2.7-4.4-6.1-4.4   c-4.3,0-8.6-0.6-12.9-1c-5.5-0.5-9-3.8-8.6-7.9c0.4-4.5,3.9-7.1,9.5-6.7c21.8,1.7,43.6,2.5,65.4,1.7c8.1-0.3,16.3-1,24.4-1.5   c1.2-0.1,2.3-0.2,3.5-0.2c5.1-0.1,8.1,2.1,8.6,6.3c0.5,4-2.2,7.5-7.1,8.1c-5.1,0.7-10.3,1.1-15.4,1.2c-3.8,0-4.9,0.7-3.6,4.8   c7.6,22.3,15,44.8,22.5,67.2c13,38.8,25.9,77.6,38.9,116.3c0.7,2,1.6,3.9,2.4,5.8C356.9,336.9,357.3,336.9,357.7,336.9z" fill="#218DBE"/></g></svg>